<?xml version="1.0" encoding="utf-8"?>
<!-- Generator: Adobe Illustrator 17.0.0, SVG Export Plug-In . SVG Version: 6.00 Build 0)  -->
<!DOCTYPE svg PUBLIC "-//W3C//DTD SVG 1.1//EN" "http://www.w3.org/Graphics/SVG/1.1/DTD/svg11.dtd">
<svg version="1.1" id="Calque_1" xmlns="http://www.w3.org/2000/svg" xmlns:xlink="http://www.w3.org/1999/xlink" x="0px" y="0px"
	 width="475px" height="427px" viewBox="0 0 475 427" enable-background="new 0 0 475 427" xml:space="preserve">
<path id="keyboard" fill="#FFFFFF" d="M468,124.582c0-4.74-3.842-8.582-8.582-8.582H16.582C11.843,116,8,119.843,8,124.582v195.835
	c0,4.74,3.843,8.582,8.582,8.582h442.835c4.74,0,8.582-3.842,8.582-8.582V124.582H468z M399,151.748
	c0-0.527,1.065-1.748,1.855-1.748h18.595c0.79,0,1.55,1.221,1.55,1.748v12.397c0,0.527-0.76,0.855-1.55,0.855h-18.595
	c-0.79,0-1.855-0.329-1.855-0.855V151.748z M370,151.748c0-0.527,0.741-1.748,1.531-1.748h18.595c0.79,0,0.873,1.221,0.873,1.748
	v12.397c0,0.527-0.083,0.855-0.873,0.855h-18.595c-0.79,0-1.531-0.329-1.531-0.855V151.748z M404,220.57c0,0.79-0.64,1.43-1.43,1.43
	h-18.14c-0.79,0-1.43-0.64-1.43-1.43v-18.14c0-0.79,0.64-1.43,1.43-1.43h18.139c0.79,0,1.43,0.64,1.43,1.43v18.14H404z M420,248.57
	c0,0.79-0.64,1.43-1.43,1.43h-18.14c-0.79,0-1.43-0.64-1.43-1.43v-18.14c0-0.79,0.64-1.43,1.43-1.43h18.139
	c0.79,0,1.43,0.64,1.43,1.43v18.14H420z M101,248.57c0,0.79-0.64,1.43-1.43,1.43H81.43c-0.79,0-1.43-0.64-1.43-1.43v-18.14
	c0-0.79,0.64-1.43,1.43-1.43h18.14c0.79,0,1.43,0.64,1.43,1.43V248.57z M87,277.57c0,0.79-0.64,1.43-1.43,1.43H67.43
	c-0.79,0-1.43-0.64-1.43-1.43v-18.14c0-0.79,0.64-1.43,1.43-1.43h18.14c0.79,0,1.43,0.64,1.43,1.43V277.57z M85,220.57
	c0,0.79-0.64,1.43-1.43,1.43H65.43c-0.79,0-1.43-0.64-1.43-1.43v-18.14c0-0.79,0.64-1.43,1.43-1.43h18.14
	c0.79,0,1.43,0.64,1.43,1.43V220.57z M114,220.57c0,0.79-0.64,1.43-1.43,1.43H94.43c-0.79,0-1.43-0.64-1.43-1.43v-18.14
	c0-0.79,0.64-1.43,1.43-1.43h18.139c0.79,0,1.43,0.64,1.43,1.43L114,220.57L114,220.57z M116,277.57c0,0.79-0.64,1.43-1.43,1.43
	H96.43c-0.79,0-1.43-0.64-1.43-1.43v-18.14c0-0.79,0.64-1.43,1.43-1.43h18.139c0.79,0,1.43,0.64,1.43,1.43L116,277.57L116,277.57z
	 M130,248.57c0,0.79-0.64,1.43-1.43,1.43h-18.14c-0.79,0-1.43-0.64-1.43-1.43v-18.14c0-0.79,0.64-1.43,1.43-1.43h18.139
	c0.79,0,1.43,0.64,1.43,1.43v18.14H130z M142,220.57c0,0.79-0.64,1.43-1.43,1.43h-18.14c-0.79,0-1.43-0.64-1.43-1.43v-18.14
	c0-0.79,0.64-1.43,1.43-1.43h18.139c0.79,0,1.43,0.64,1.43,1.43v18.14H142z M144,277.57c0,0.79-0.64,1.43-1.43,1.43h-18.14
	c-0.79,0-1.43-0.64-1.43-1.43v-18.14c0-0.79,0.64-1.43,1.43-1.43h18.139c0.79,0,1.43,0.64,1.43,1.43v18.14H144z M159,248.57
	c0,0.79-0.64,1.43-1.43,1.43h-18.14c-0.79,0-1.43-0.64-1.43-1.43v-18.14c0-0.79,0.64-1.43,1.43-1.43h18.139
	c0.79,0,1.43,0.64,1.43,1.43v18.14H159z M172,220.57c0,0.79-0.64,1.43-1.43,1.43h-18.14c-0.79,0-1.43-0.64-1.43-1.43v-18.14
	c0-0.79,0.64-1.43,1.43-1.43h18.139c0.79,0,1.43,0.64,1.43,1.43v18.14H172z M173,277.57c0,0.79-0.64,1.43-1.43,1.43h-18.14
	c-0.79,0-1.43-0.64-1.43-1.43v-18.14c0-0.79,0.64-1.43,1.43-1.43h18.139c0.79,0,1.43,0.64,1.43,1.43v18.14H173z M188,248.57
	c0,0.79-0.64,1.43-1.43,1.43h-18.14c-0.79,0-1.43-0.64-1.43-1.43v-18.14c0-0.79,0.64-1.43,1.43-1.43h18.139
	c0.79,0,1.43,0.64,1.43,1.43v18.14H188z M201,220.57c0,0.79-0.64,1.43-1.43,1.43h-18.14c-0.79,0-1.43-0.64-1.43-1.43v-18.14
	c0-0.79,0.64-1.43,1.43-1.43h18.139c0.79,0,1.43,0.64,1.43,1.43v18.14H201z M203,277.57c0,0.79-0.64,1.43-1.43,1.43h-18.14
	c-0.79,0-1.43-0.64-1.43-1.43v-18.14c0-0.79,0.64-1.43,1.43-1.43h18.139c0.79,0,1.43,0.64,1.43,1.43v18.14H203z M217,248.57
	c0,0.79-0.64,1.43-1.43,1.43h-18.14c-0.79,0-1.43-0.64-1.43-1.43v-18.14c0-0.79,0.64-1.43,1.43-1.43h18.139
	c0.79,0,1.43,0.64,1.43,1.43v18.14H217z M230,220.57c0,0.79-0.64,1.43-1.43,1.43h-18.14c-0.79,0-1.43-0.64-1.43-1.43v-18.14
	c0-0.79,0.64-1.43,1.43-1.43h18.139c0.79,0,1.43,0.64,1.43,1.43v18.14H230z M231,277.57c0,0.79-0.64,1.43-1.43,1.43h-18.14
	c-0.79,0-1.43-0.64-1.43-1.43v-18.14c0-0.79,0.64-1.43,1.43-1.43h18.139c0.79,0,1.43,0.64,1.43,1.43v18.14H231z M246,248.57
	c0,0.79-0.64,1.43-1.43,1.43h-18.14c-0.79,0-1.43-0.64-1.43-1.43v-18.14c0-0.79,0.64-1.43,1.43-1.43h18.139
	c0.79,0,1.43,0.64,1.43,1.43v18.14H246z M258,220.57c0,0.79-0.64,1.43-1.43,1.43h-18.14c-0.79,0-1.43-0.64-1.43-1.43v-18.14
	c0-0.79,0.64-1.43,1.43-1.43h18.139c0.79,0,1.43,0.64,1.43,1.43v18.14H258z M260,277.57c0,0.79-0.64,1.43-1.43,1.43h-18.14
	c-0.79,0-1.43-0.64-1.43-1.43v-18.14c0-0.79,0.64-1.43,1.43-1.43h18.139c0.79,0,1.43,0.64,1.43,1.43v18.14H260z M275,248.57
	c0,0.79-0.64,1.43-1.43,1.43h-18.14c-0.79,0-1.43-0.64-1.43-1.43v-18.14c0-0.79,0.64-1.43,1.43-1.43h18.139
	c0.79,0,1.43,0.64,1.43,1.43v18.14H275z M288,220.57c0,0.79-0.64,1.43-1.43,1.43h-18.14c-0.79,0-1.43-0.64-1.43-1.43v-18.14
	c0-0.79,0.64-1.43,1.43-1.43h18.139c0.79,0,1.43,0.64,1.43,1.43v18.14H288z M289,277.57c0,0.79-0.64,1.43-1.43,1.43h-18.14
	c-0.79,0-1.43-0.64-1.43-1.43v-18.14c0-0.79,0.64-1.43,1.43-1.43h18.139c0.79,0,1.43,0.64,1.43,1.43v18.14H289z M303,248.57
	c0,0.79-0.64,1.43-1.43,1.43h-18.14c-0.79,0-1.43-0.64-1.43-1.43v-18.14c0-0.79,0.64-1.43,1.43-1.43h18.139
	c0.79,0,1.43,0.64,1.43,1.43v18.14H303z M316,220.57c0,0.79-0.64,1.43-1.43,1.43h-18.14c-0.79,0-1.43-0.64-1.43-1.43v-18.14
	c0-0.79,0.64-1.43,1.43-1.43h18.139c0.79,0,1.43,0.64,1.43,1.43v18.14H316z M318,277.57c0,0.79-0.64,1.43-1.43,1.43h-18.14
	c-0.79,0-1.43-0.64-1.43-1.43v-18.14c0-0.79,0.64-1.43,1.43-1.43h18.139c0.79,0,1.43,0.64,1.43,1.43v18.14H318z M333,248.57
	c0,0.79-0.64,1.43-1.43,1.43h-18.14c-0.79,0-1.43-0.64-1.43-1.43v-18.14c0-0.79,0.64-1.43,1.43-1.43h18.139
	c0.79,0,1.43,0.64,1.43,1.43v18.14H333z M345,220.57c0,0.79-0.64,1.43-1.43,1.43h-18.14c-0.79,0-1.43-0.64-1.43-1.43v-18.14
	c0-0.79,0.64-1.43,1.43-1.43h18.139c0.79,0,1.43,0.64,1.43,1.43v18.14H345z M347,277.57c0,0.79-0.64,1.43-1.43,1.43h-18.14
	c-0.79,0-1.43-0.64-1.43-1.43v-18.14c0-0.79,0.64-1.43,1.43-1.43h18.139c0.79,0,1.43,0.64,1.43,1.43v18.14H347z M362,248.57
	c0,0.79-0.64,1.43-1.43,1.43h-18.14c-0.79,0-1.43-0.64-1.43-1.43v-18.14c0-0.79,0.64-1.43,1.43-1.43h18.139
	c0.79,0,1.43,0.64,1.43,1.43v18.14H362z M374,220.57c0,0.79-0.64,1.43-1.43,1.43h-18.14c-0.79,0-1.43-0.64-1.43-1.43v-18.14
	c0-0.79,0.64-1.43,1.43-1.43h18.139c0.79,0,1.43,0.64,1.43,1.43v18.14H374z M376,277.57c0,0.79-0.64,1.43-1.43,1.43h-18.14
	c-0.79,0-1.43-0.64-1.43-1.43v-18.14c0-0.79,0.64-1.43,1.43-1.43h18.139c0.79,0,1.43,0.64,1.43,1.43v18.14H376z M391,248.57
	c0,0.79-0.64,1.43-1.43,1.43h-18.14c-0.79,0-1.43-0.64-1.43-1.43v-18.14c0-0.79,0.64-1.43,1.43-1.43h18.139
	c0.79,0,1.43,0.64,1.43,1.43v18.14H391z M391,191.57c0,0.79-0.64,1.43-1.43,1.43h-18.14c-0.79,0-1.43-0.64-1.43-1.43v-18.14
	c0-0.79,0.64-1.43,1.43-1.43h18.139c0.79,0,1.43,0.64,1.43,1.43v18.14H391z M341,151.748c0-0.527,0.418-1.748,1.208-1.748h18.595
	c0.79,0,1.197,1.221,1.197,1.748v12.397c0,0.527-0.407,0.855-1.197,0.855h-18.595c-0.79,0-1.208-0.329-1.208-0.855V151.748z
	 M362,191.57c0,0.79-0.64,1.43-1.43,1.43h-18.14c-0.79,0-1.43-0.64-1.43-1.43v-18.14c0-0.79,0.64-1.43,1.43-1.43h18.139
	c0.79,0,1.43,0.64,1.43,1.43v18.14H362z M312,151.748c0-0.527,0.81-1.748,1.6-1.748h18.595c0.79,0,0.805,1.221,0.805,1.748v12.397
	c0,0.527-0.015,0.855-0.805,0.855H313.6c-0.79,0-1.6-0.329-1.6-0.855V151.748z M333,191.57c0,0.79-0.64,1.43-1.43,1.43h-18.14
	c-0.79,0-1.43-0.64-1.43-1.43v-18.14c0-0.79,0.64-1.43,1.43-1.43h18.139c0.79,0,1.43,0.64,1.43,1.43v18.14H333z M282,151.748
	c0-0.527,1.486-1.748,2.276-1.748h18.595c0.79,0,1.128,1.221,1.128,1.748v12.397c0,0.527-0.338,0.855-1.128,0.855h-18.595
	c-0.79,0-2.276-0.329-2.276-0.855V151.748z M303,191.57c0,0.79-0.64,1.43-1.43,1.43h-18.14c-0.79,0-1.43-0.64-1.43-1.43v-18.14
	c0-0.79,0.64-1.43,1.43-1.43h18.139c0.79,0,1.43,0.64,1.43,1.43v18.14H303z M254,151.748c0-0.527,0.878-1.748,1.668-1.748h18.595
	c0.79,0,0.737,1.221,0.737,1.748v12.397c0,0.527,0.053,0.855-0.737,0.855h-18.595c-0.79,0-1.668-0.329-1.668-0.855V151.748z
	 M275,191.57c0,0.79-0.64,1.43-1.43,1.43h-18.14c-0.79,0-1.43-0.64-1.43-1.43v-18.14c0-0.79,0.64-1.43,1.43-1.43h18.139
	c0.79,0,1.43,0.64,1.43,1.43v18.14H275z M225,151.748c0-0.527,0.555-1.748,1.345-1.748h18.595c0.79,0,1.06,1.221,1.06,1.748v12.397
	c0,0.527-0.27,0.855-1.06,0.855h-18.595c-0.79,0-1.345-0.329-1.345-0.855V151.748z M246,191.57c0,0.79-0.64,1.43-1.43,1.43h-18.14
	c-0.79,0-1.43-0.64-1.43-1.43v-18.14c0-0.79,0.64-1.43,1.43-1.43h18.139c0.79,0,1.43,0.64,1.43,1.43v18.14H246z M196,151.748
	c0-0.527,0.946-1.748,1.736-1.748h18.595c0.79,0,0.668,1.221,0.668,1.748v12.397c0,0.527,0.122,0.855-0.668,0.855h-18.595
	c-0.79,0-1.736-0.329-1.736-0.855V151.748z M217,191.57c0,0.79-0.64,1.43-1.43,1.43h-18.14c-0.79,0-1.43-0.64-1.43-1.43v-18.14
	c0-0.79,0.64-1.43,1.43-1.43h18.139c0.79,0,1.43,0.64,1.43,1.43v18.14H217z M167,151.748c0-0.527,0.623-1.748,1.413-1.748h18.595
	c0.79,0,0.992,1.221,0.992,1.748v12.397c0,0.527-0.202,0.855-0.992,0.855h-18.595c-0.79,0-1.413-0.329-1.413-0.855V151.748z
	 M188,191.57c0,0.79-0.64,1.43-1.43,1.43h-18.14c-0.79,0-1.43-0.64-1.43-1.43v-18.14c0-0.79,0.64-1.43,1.43-1.43h18.139
	c0.79,0,1.43,0.64,1.43,1.43v18.14H188z M138,151.748c0-0.527,1.015-1.748,1.805-1.748H158.4c0.79,0,1.6,1.221,1.6,1.748v12.397
	c0,0.527-0.81,0.855-1.6,0.855h-18.595c-0.79,0-1.805-0.329-1.805-0.855V151.748z M159,191.57c0,0.79-0.64,1.43-1.43,1.43h-18.14
	c-0.79,0-1.43-0.64-1.43-1.43v-18.14c0-0.79,0.64-1.43,1.43-1.43h18.139c0.79,0,1.43,0.64,1.43,1.43v18.14H159z M109,151.748
	c0-0.527,0.691-1.748,1.481-1.748h18.595c0.79,0,0.923,1.221,0.923,1.748v12.397c0,0.527-0.134,0.855-0.923,0.855h-18.595
	c-0.79,0-1.481-0.329-1.481-0.855V151.748z M130,191.57c0,0.79-0.64,1.43-1.43,1.43h-18.14c-0.79,0-1.43-0.64-1.43-1.43v-18.14
	c0-0.79,0.64-1.43,1.43-1.43h18.139c0.79,0,1.43,0.64,1.43,1.43v18.14H130z M80,151.748c0-0.527,1.083-1.748,1.873-1.748h18.595
	c0.79,0,0.532,1.221,0.532,1.748v12.397c0,0.527,0.258,0.855-0.532,0.855H81.873c-0.79,0-1.873-0.329-1.873-0.855V151.748z
	 M101,191.57c0,0.79-0.64,1.43-1.43,1.43H81.43c-0.79,0-1.43-0.64-1.43-1.43v-18.14c0-0.79,0.64-1.43,1.43-1.43h18.14
	c0.79,0,1.43,0.64,1.43,1.43V191.57z M50,151.748c0-0.527,1.76-1.748,2.549-1.748h18.595c0.79,0,0.855,1.221,0.855,1.748v12.397
	c0,0.527-0.065,0.855-0.855,0.855H52.549c-0.79,0-2.549-0.329-2.549-0.855V151.748z M71,191.57c0,0.79-0.64,1.43-1.43,1.43H51.43
	c-0.79,0-1.43-0.64-1.43-1.43v-18.14c0-0.79,0.64-1.43,1.43-1.43h18.14c0.79,0,1.43,0.64,1.43,1.43V191.57z M22,151.748
	c0-0.527,1.151-1.748,1.941-1.748h18.595c0.79,0,0.463,1.221,0.463,1.748v12.397c0,0.527,0.327,0.855-0.463,0.855H23.941
	c-0.79,0-1.941-0.329-1.941-0.855V151.748z M43,191.57c0,0.79-0.64,1.43-1.43,1.43H23.43c-0.79,0-1.43-0.64-1.43-1.43v-18.14
	c0-0.79,0.64-1.43,1.43-1.43h18.14c0.79,0,1.43,0.64,1.43,1.43V191.57z M22,202.432c0-0.79,1.535-1.432,2.8-1.432h29.752
	c1.264,0,1.448,0.642,1.448,1.432v18.595c0,0.791-0.184,0.973-1.448,0.973H24.8c-1.264,0-2.8-0.182-2.8-0.973V202.432z M22,231.111
	c0-0.789,2.005-2.111,3.848-2.111h43.389c1.843,0,2.763,1.322,2.763,2.111v18.595c0,0.791-0.919,1.293-2.763,1.293H25.848
	c-1.843,0-3.848-0.503-3.848-1.293V231.111z M22,259.506c0-0.791,1.578-1.506,2.895-1.506h30.992c1.317,0,2.113,0.715,2.113,1.506
	v18.595c0,0.789-0.796,1.899-2.113,1.899H24.895c-1.317,0-2.895-1.11-2.895-1.899V259.506z M43,308.57c0,0.79-0.64,1.43-1.43,1.43
	H23.43c-0.79,0-1.43-0.64-1.43-1.43v-18.14c0-0.79,0.64-1.43,1.43-1.43h18.14c0.79,0,1.43,0.64,1.43,1.43V308.57z M71,308.57
	c0,0.79-0.64,1.43-1.43,1.43H51.43c-0.79,0-1.43-0.64-1.43-1.43v-18.14c0-0.79,0.64-1.43,1.43-1.43h18.14
	c0.79,0,1.43,0.64,1.43,1.43V308.57z M101,308.57c0,0.79-0.64,1.43-1.43,1.43H81.43c-0.79,0-1.43-0.64-1.43-1.43v-18.14
	c0-0.79,0.64-1.43,1.43-1.43h18.14c0.79,0,1.43,0.64,1.43,1.43V308.57z M304,308.14c0,0.789-5.526,1.86-12.714,1.86H122.068
	c-7.188,0-13.068-1.071-13.068-1.86v-18.595c0-0.791,5.879-0.544,13.068-0.544h169.218c7.188,0,12.714-0.246,12.714,0.544V308.14z
	 M333,308.57c0,0.79-0.64,1.43-1.43,1.43h-18.14c-0.79,0-1.43-0.64-1.43-1.43v-18.14c0-0.79,0.64-1.43,1.43-1.43h18.139
	c0.79,0,1.43,0.64,1.43,1.43v18.14H333z M362,308.57c0,0.79-0.64,1.43-1.43,1.43h-18.14c-0.79,0-1.43-0.64-1.43-1.43v-18.14
	c0-0.79,0.64-1.43,1.43-1.43h18.139c0.79,0,1.43,0.64,1.43,1.43v18.14H362z M391,308.756c0,0.45-0.083,1.244-0.873,1.244h-18.595
	c-0.79,0-1.531-0.794-1.531-1.244v-10.583c0-0.45,0.741-1.173,1.531-1.173h18.595c0.79,0,0.873,0.723,0.873,1.173V308.756z
	 M421,308.756c0,0.45-0.76,1.244-1.55,1.244h-18.595c-0.79,0-1.855-0.794-1.855-1.244v-10.583c0-0.45,1.065-1.173,1.855-1.173
	h18.595c0.79,0,1.55,0.723,1.55,1.173V308.756z M421,295.934c0,0.45-0.76,1.066-1.55,1.066h-18.595c-0.79,0-1.855-0.616-1.855-1.066
	v-10.582c0-0.449,1.065-0.352,1.855-0.352h18.595c0.79,0,1.55-0.097,1.55,0.352V295.934z M449,308.756
	c0,0.45-0.152,1.244-0.942,1.244h-18.595c-0.79,0-2.463-0.794-2.463-1.244v-10.583c0-0.45,1.673-1.173,2.463-1.173h18.595
	c0.79,0,0.942,0.723,0.942,1.173V308.756z M449,278.387c0,0.79-1.497,1.613-3.946,1.613h-57.646c-2.448,0-4.408-0.823-4.408-1.613
	v-18.595c0-0.79,1.96-1.792,4.408-1.792h57.646c2.449,0,3.946,1.002,3.946,1.792V278.387z M449,219.357
	c0,0.024-0.006,0.046-0.007,0.069c0.001,0.039,0.007,0.075,0.007,0.114v29.141c0,1.238-0.152,2.319-0.942,2.319h-18.595
	c-0.79,0-2.463-1.081-2.463-2.319V221h-12.556c-0.79,0-2.444-0.885-2.444-1.643v-17.841c0-0.758,1.654-0.516,2.444-0.516h15.019
	h3.576h15.019c0.79,0,0.942-0.242,0.942,0.516V219.357z M449,192.348c0,0.79-1.006,1.652-2.849,1.652h-43.389
	c-1.842,0-3.762-0.862-3.762-1.652v-18.595c0-0.79,1.919-1.752,3.762-1.752h43.389c1.843,0,2.849,0.962,2.849,1.752V192.348z
	 M449,164.145c0,0.527-0.152,0.855-0.942,0.855h-18.595c-0.79,0-2.463-0.329-2.463-0.855v-12.397c0-0.527,1.673-1.748,2.463-1.748
	h18.595c0.79,0,0.942,1.221,0.942,1.748V164.145z"/>
<g>
	<path fill="#FFFFFF" d="M120.582,421.659c0,0,5.829-5.098-4.372-13.841c0,0-23.938-26.953-35.592-47.349
		c0,0-6.556-10.927,7.285-26.224c0,0,6.456-21.853,10.096-30.596c0,0,1.889-17.982,1.889-78.731
		c2.497-27.462,18.191-12.822,19.809-5.273c1.996,0.32,5.822,72.38,8.169,73.077c0,0,18.939-14.568,28.407,6.556
		c0,0,18.944-10.926,26.225,10.198c0,0,25.498,2.185,23.311,25.496c0,0,5.344,43.708-10.682,74.302l-3.885,13.112L120.582,421.659z"
		/>
</g>
<g>
	<path fill="#FFFFFF" d="M150.861,33.511h-10.296l-1.43,4.845h-9.26l11.031-29.349h9.892l11.028,29.349h-9.497L150.861,33.511z
		 M148.98,27.165l-3.239-10.55l-3.206,10.55H148.98z"/>
	<path fill="#FFFFFF" d="M164.668,9.007h15.075c3.283,0,5.742,0.781,7.377,2.342c1.634,1.562,2.452,3.784,2.452,6.667
		c0,2.963-0.891,5.279-2.673,6.947c-1.781,1.668-4.501,2.502-8.158,2.502h-4.965v10.891h-9.109V9.007z M173.777,21.519H176
		c1.748,0,2.976-0.303,3.684-0.911c0.707-0.607,1.061-1.385,1.061-2.333c0-0.921-0.307-1.702-0.921-2.342
		c-0.614-0.641-1.769-0.961-3.463-0.961h-2.583V21.519z"/>
	<path fill="#FFFFFF" d="M194.277,9.007h15.075c3.283,0,5.742,0.781,7.377,2.342c1.634,1.562,2.452,3.784,2.452,6.667
		c0,2.963-0.891,5.279-2.673,6.947c-1.781,1.668-4.501,2.502-8.158,2.502h-4.965v10.891h-9.109V9.007z M203.386,21.519h2.222
		c1.748,0,2.976-0.303,3.684-0.911c0.707-0.607,1.061-1.385,1.061-2.333c0-0.921-0.307-1.702-0.921-2.342
		c-0.614-0.641-1.769-0.961-3.463-0.961h-2.583V21.519z"/>
	<path fill="#FFFFFF" d="M243.025,9.007h9.049v17.485c0,1.734-0.271,3.371-0.811,4.912c-0.541,1.541-1.389,2.888-2.543,4.042
		c-1.154,1.153-2.365,1.963-3.633,2.43c-1.762,0.654-3.879,0.98-6.348,0.98c-1.428,0-2.986-0.1-4.674-0.3
		c-1.688-0.201-3.1-0.597-4.234-1.191c-1.135-0.593-2.172-1.437-3.113-2.53c-0.941-1.094-1.585-2.221-1.932-3.381
		c-0.561-1.867-0.841-3.521-0.841-4.961V9.007h9.049v17.902c0,1.6,0.443,2.851,1.332,3.75c0.887,0.9,2.118,1.35,3.693,1.35
		c1.563,0,2.787-0.443,3.674-1.33s1.332-2.144,1.332-3.771V9.007z"/>
	<path fill="#FFFFFF" d="M255.116,9.007h10.073l5.913,9.901l5.926-9.901h10.019l-11.41,17.057v12.292h-9.09V26.063L255.116,9.007z"
		/>
	<path fill="#FFFFFF" d="M289.949,9.007h24.305v6.266h-15.215v4.665h14.113v5.986h-14.113v5.786h15.654v6.646h-24.744V9.007z"/>
	<path fill="#FFFFFF" d="M318.838,9.007h25.666v5.866l-16.476,17.177h17.075v6.306h-27.847V32.27l16.303-16.997h-14.722V9.007z"/>
	<path fill="#FFFFFF" d="M32.88,65.646l8.628-0.541c0.187,1.401,0.567,2.469,1.141,3.203c0.934,1.188,2.269,1.782,4.004,1.782
		c1.294,0,2.292-0.303,2.993-0.911c0.701-0.607,1.051-1.312,1.051-2.112c0-0.761-0.334-1.441-1.001-2.042
		c-0.667-0.601-2.216-1.167-4.645-1.702c-3.978-0.894-6.813-2.082-8.508-3.563c-1.708-1.481-2.563-3.37-2.563-5.666
		c0-1.508,0.437-2.933,1.312-4.274c0.874-1.341,2.188-2.395,3.943-3.163c1.755-0.767,4.161-1.151,7.217-1.151
		c3.75,0,6.609,0.698,8.579,2.092c1.968,1.395,3.139,3.613,3.513,6.656l-8.548,0.5c-0.227-1.321-0.704-2.282-1.432-2.883
		s-1.731-0.901-3.013-0.901c-1.055,0-1.849,0.224-2.382,0.671c-0.534,0.447-0.801,0.991-0.801,1.631c0,0.467,0.22,0.888,0.661,1.261
		c0.427,0.387,1.441,0.748,3.043,1.081c3.964,0.854,6.803,1.719,8.519,2.593c1.714,0.874,2.963,1.958,3.743,3.253
		c0.781,1.295,1.171,2.743,1.171,4.344c0,1.882-0.521,3.617-1.562,5.205c-1.041,1.588-2.496,2.792-4.364,3.614
		c-1.869,0.82-4.224,1.231-7.067,1.231c-4.992,0-8.448-0.961-10.37-2.883S33.133,68.609,32.88,65.646z"/>
	<path fill="#FFFFFF" d="M83.169,46.007h9.049v17.485c0,1.734-0.271,3.371-0.811,4.912c-0.541,1.541-1.389,2.888-2.543,4.042
		c-1.154,1.153-2.366,1.963-3.633,2.43c-1.762,0.654-3.877,0.98-6.346,0.98c-1.428,0-2.986-0.1-4.675-0.3
		c-1.688-0.201-3.1-0.597-4.234-1.191c-1.135-0.593-2.172-1.437-3.113-2.53c-0.941-1.094-1.585-2.221-1.932-3.381
		c-0.561-1.867-0.841-3.521-0.841-4.961V46.007h9.049v17.902c0,1.6,0.443,2.851,1.332,3.75c0.887,0.9,2.118,1.35,3.693,1.35
		c1.562,0,2.786-0.443,3.674-1.33c0.887-0.887,1.331-2.144,1.331-3.771V46.007z"/>
	<path fill="#FFFFFF" d="M98.344,75.355V46.007h15.115c2.803,0,4.945,0.24,6.426,0.721s2.676,1.371,3.583,2.673
		c0.907,1.301,1.361,2.886,1.361,4.754c0,1.628-0.347,3.033-1.042,4.214c-0.694,1.181-1.649,2.139-2.864,2.873
		c-0.775,0.467-1.836,0.854-3.185,1.161c1.08,0.361,1.867,0.722,2.36,1.082c0.333,0.241,0.817,0.755,1.451,1.543
		c0.633,0.789,1.057,1.396,1.271,1.823l4.392,8.504h-10.247l-4.848-8.969c-0.614-1.161-1.161-1.915-1.642-2.262
		c-0.654-0.454-1.395-0.681-2.222-0.681h-0.801v11.912H98.344z M107.453,57.898h3.824c0.414,0,1.214-0.133,2.402-0.4
		c0.601-0.12,1.091-0.427,1.472-0.921c0.38-0.494,0.57-1.061,0.57-1.702c0-0.947-0.3-1.675-0.901-2.182
		c-0.601-0.507-1.729-0.761-3.383-0.761h-3.984V57.898z"/>
	<path fill="#FFFFFF" d="M162.887,46.007h9.049v17.485c0,1.734-0.271,3.371-0.811,4.912c-0.541,1.541-1.389,2.888-2.543,4.042
		c-1.154,1.153-2.366,1.963-3.633,2.43c-1.762,0.654-3.877,0.98-6.346,0.98c-1.428,0-2.986-0.1-4.675-0.3
		c-1.688-0.201-3.1-0.597-4.234-1.191c-1.135-0.593-2.172-1.437-3.113-2.53c-0.941-1.094-1.585-2.221-1.932-3.381
		c-0.561-1.867-0.841-3.521-0.841-4.961V46.007h9.049v17.902c0,1.6,0.443,2.851,1.332,3.75c0.887,0.9,2.118,1.35,3.693,1.35
		c1.562,0,2.786-0.443,3.674-1.33c0.887-0.887,1.331-2.144,1.331-3.771V46.007z"/>
	<path fill="#FFFFFF" d="M178.001,46.007h8.468l11.051,16.237V46.007h8.548v29.349h-8.548L186.53,59.241v16.114h-8.528V46.007z"/>
	<path fill="#FFFFFF" d="M212.075,46.007h24.304v6.266h-15.215v4.665h14.114v5.986h-14.114v5.786h15.655v6.646h-24.744V46.007z"/>
	<path fill="#FFFFFF" d="M253.316,46.007h27.566v7.247h-9.249v22.102h-9.069V53.254h-9.248V46.007z"/>
	<path fill="#FFFFFF" d="M282.444,60.701c0-4.791,1.335-8.521,4.004-11.191c2.67-2.669,6.387-4.004,11.151-4.004
		c4.885,0,8.648,1.311,11.291,3.934c2.643,2.622,3.964,6.296,3.964,11.021c0,3.43-0.577,6.243-1.731,8.438
		c-1.155,2.195-2.823,3.903-5.005,5.125c-2.183,1.221-4.902,1.832-8.158,1.832c-3.311,0-6.05-0.527-8.218-1.582
		c-2.169-1.054-3.928-2.723-5.275-5.005C283.118,66.987,282.444,64.131,282.444,60.701z M291.514,60.741
		c0,2.963,0.551,5.092,1.651,6.386c1.102,1.295,2.6,1.942,4.494,1.942c1.949,0,3.457-0.634,4.525-1.902
		c1.067-1.268,1.602-3.543,1.602-6.827c0-2.763-0.558-4.781-1.672-6.056c-1.115-1.274-2.626-1.912-4.535-1.912
		c-1.828,0-3.296,0.647-4.404,1.942C292.067,55.61,291.514,57.752,291.514,60.741z"/>
	<path fill="#FFFFFF" d="M336.838,46.007h9.049v17.485c0,1.734-0.271,3.371-0.811,4.912c-0.541,1.541-1.389,2.888-2.543,4.042
		c-1.154,1.153-2.365,1.963-3.633,2.43c-1.762,0.654-3.878,0.98-6.347,0.98c-1.429,0-2.986-0.1-4.675-0.3
		c-1.688-0.201-3.1-0.597-4.234-1.191c-1.134-0.593-2.172-1.437-3.112-2.53c-0.941-1.094-1.585-2.221-1.933-3.381
		c-0.561-1.867-0.84-3.521-0.84-4.961V46.007h9.049v17.902c0,1.6,0.443,2.851,1.331,3.75c0.887,0.9,2.118,1.35,3.693,1.35
		c1.562,0,2.786-0.443,3.674-1.33c0.887-0.887,1.331-2.144,1.331-3.771V46.007z"/>
	<path fill="#FFFFFF" d="M371.432,63.344l7.948,2.402c-0.534,2.229-1.375,4.091-2.523,5.585c-1.147,1.495-2.572,2.623-4.273,3.383
		c-1.702,0.761-3.867,1.141-6.496,1.141c-3.19,0-5.796-0.463-7.818-1.391c-2.021-0.927-3.767-2.557-5.234-4.891
		c-1.469-2.334-2.203-5.322-2.203-8.963c0-4.855,1.292-8.586,3.874-11.194c2.583-2.607,6.236-3.911,10.961-3.911
		c3.696,0,6.603,0.748,8.719,2.242c2.115,1.495,3.687,3.791,4.714,6.887l-8.008,1.782c-0.279-0.894-0.573-1.548-0.881-1.962
		c-0.507-0.694-1.128-1.228-1.861-1.602c-0.734-0.374-1.555-0.561-2.463-0.561c-2.055,0-3.63,0.827-4.725,2.479
		c-0.827,1.227-1.24,3.153-1.24,5.778c0,3.253,0.493,5.483,1.48,6.689c0.988,1.207,2.376,1.81,4.164,1.81
		c1.735,0,3.047-0.487,3.935-1.461C370.387,66.614,371.031,65.199,371.432,63.344z"/>
	<path fill="#FFFFFF" d="M383.823,46.007h9.068v10.27h9.91v-10.27h9.109v29.349h-9.109V63.484h-9.91v11.872h-9.068V46.007z"/>
	<path fill="#FFFFFF" d="M417.916,46.007h24.305v6.266h-15.215v4.665h14.113v5.986h-14.113v5.786h15.654v6.646h-24.744V46.007z"/>
	<path fill="#FFFFFF" d="M20.248,83.007h13.473c2.656,0,4.801,0.36,6.436,1.081s2.986,1.755,4.054,3.103
		c1.067,1.348,1.842,2.917,2.322,4.705c0.48,1.789,0.721,3.684,0.721,5.686c0,3.137-0.357,5.569-1.071,7.297
		c-0.714,1.729-1.706,3.177-2.973,4.345c-1.268,1.168-2.629,1.945-4.084,2.332c-1.989,0.534-3.791,0.801-5.405,0.801H20.248V83.007z
		 M29.316,89.653v16.036h2.222c1.895,0,3.243-0.21,4.044-0.63c0.801-0.421,1.428-1.154,1.882-2.202
		c0.454-1.048,0.681-2.746,0.681-5.095c0-3.109-0.507-5.238-1.521-6.386c-1.015-1.147-2.696-1.722-5.045-1.722H29.316z"/>
	<path fill="#FFFFFF" d="M51.999,83.007h24.304v6.266H61.087v4.665h14.114v5.986H61.087v5.786h15.655v6.646H51.999V83.007z"/>
	<path fill="#FFFFFF" d="M92.418,83.007h9.48l6.606,21.121l6.521-21.121h9.204l-10.897,29.349h-9.83L92.418,83.007z"/>
	<path fill="#FFFFFF" d="M124.649,97.701c0-4.791,1.334-8.521,4.004-11.191c2.669-2.669,6.386-4.004,11.151-4.004
		c4.885,0,8.648,1.311,11.291,3.934c2.643,2.622,3.964,6.296,3.964,11.021c0,3.43-0.578,6.243-1.731,8.438
		c-1.155,2.195-2.823,3.903-5.005,5.125c-2.183,1.221-4.902,1.832-8.158,1.832c-3.31,0-6.049-0.527-8.218-1.582
		c-2.169-1.054-3.928-2.723-5.275-5.005C125.323,103.987,124.649,101.131,124.649,97.701z M133.718,97.741
		c0,2.963,0.551,5.092,1.651,6.386c1.102,1.295,2.599,1.942,4.495,1.942c1.948,0,3.457-0.634,4.524-1.902
		c1.067-1.268,1.602-3.543,1.602-6.827c0-2.763-0.558-4.781-1.671-6.056c-1.115-1.274-2.626-1.912-4.535-1.912
		c-1.829,0-3.297,0.647-4.404,1.942C134.272,92.61,133.718,94.752,133.718,97.741z"/>
	<path fill="#FFFFFF" d="M156.821,83.007h27.567v7.247h-9.249v22.102h-9.069V90.254h-9.249V83.007z"/>
	<path fill="#FFFFFF" d="M188.612,112.355V83.007h15.115c2.803,0,4.945,0.24,6.426,0.721s2.676,1.371,3.583,2.673
		c0.907,1.301,1.361,2.886,1.361,4.754c0,1.628-0.347,3.033-1.042,4.214c-0.694,1.181-1.649,2.139-2.864,2.873
		c-0.775,0.467-1.836,0.854-3.185,1.161c1.08,0.361,1.867,0.722,2.36,1.082c0.333,0.241,0.817,0.755,1.451,1.543
		c0.633,0.789,1.057,1.396,1.271,1.823l4.392,8.504h-10.247l-4.848-8.969c-0.614-1.161-1.161-1.915-1.642-2.262
		c-0.654-0.454-1.395-0.681-2.222-0.681h-0.801v11.912H188.612z M197.721,94.898h3.824c0.414,0,1.214-0.133,2.402-0.4
		c0.601-0.12,1.091-0.427,1.472-0.921c0.38-0.494,0.57-1.061,0.57-1.702c0-0.947-0.3-1.675-0.901-2.182
		c-0.601-0.507-1.729-0.761-3.383-0.761h-3.984V94.898z"/>
	<path fill="#FFFFFF" d="M220.363,83.007h24.304v6.266h-15.215v4.665h14.114v5.986h-14.114v5.786h15.655v6.646h-24.744V83.007z"/>
	<path fill="#FFFFFF" d="M283.204,100.344l7.948,2.402c-0.534,2.229-1.375,4.091-2.523,5.585c-1.147,1.495-2.572,2.623-4.273,3.383
		c-1.702,0.761-3.867,1.141-6.496,1.141c-3.19,0-5.796-0.463-7.818-1.391c-2.021-0.927-3.767-2.557-5.234-4.891
		c-1.469-2.334-2.203-5.322-2.203-8.963c0-4.855,1.292-8.586,3.874-11.194c2.583-2.607,6.236-3.911,10.961-3.911
		c3.696,0,6.603,0.748,8.719,2.242c2.115,1.495,3.687,3.791,4.714,6.887l-8.008,1.782c-0.279-0.894-0.573-1.548-0.881-1.962
		c-0.507-0.694-1.128-1.228-1.861-1.602c-0.734-0.374-1.555-0.561-2.463-0.561c-2.055,0-3.63,0.827-4.725,2.479
		c-0.827,1.227-1.24,3.153-1.24,5.778c0,3.253,0.493,5.483,1.48,6.689c0.988,1.207,2.376,1.81,4.164,1.81
		c1.735,0,3.047-0.487,3.935-1.461C282.159,103.614,282.804,102.199,283.204,100.344z"/>
	<path fill="#FFFFFF" d="M295.556,83.007h9.069v22.122h14.153v7.227h-23.223V83.007z"/>
	<path fill="#FFFFFF" d="M340.946,107.511H330.65l-1.431,4.845h-9.259l11.03-29.349h9.893l11.028,29.349h-9.497L340.946,107.511z
		 M339.065,101.165l-3.239-10.55l-3.206,10.55H339.065z"/>
	<path fill="#FFFFFF" d="M349.649,83.007h9.48l6.605,21.121l6.521-21.121h9.205l-10.898,29.349h-9.829L349.649,83.007z"/>
	<path fill="#FFFFFF" d="M384.783,83.007h9.089v29.349h-9.089V83.007z"/>
	<path fill="#FFFFFF" d="M400.357,83.007h24.305v6.266h-15.215v4.665h14.113v5.986h-14.113v5.786h15.654v6.646h-24.744V83.007z"/>
	<path fill="#FFFFFF" d="M430.107,112.355V83.007h15.115c2.803,0,4.944,0.24,6.426,0.721s2.676,1.371,3.584,2.673
		c0.907,1.301,1.361,2.886,1.361,4.754c0,1.628-0.348,3.033-1.042,4.214c-0.694,1.181-1.649,2.139-2.864,2.873
		c-0.774,0.467-1.836,0.854-3.186,1.161c1.08,0.361,1.867,0.722,2.361,1.082c0.333,0.241,0.816,0.755,1.45,1.543
		c0.634,0.789,1.057,1.396,1.271,1.823l4.392,8.504h-10.247l-4.848-8.969c-0.614-1.161-1.161-1.915-1.642-2.262
		c-0.654-0.454-1.395-0.681-2.222-0.681h-0.801v11.912H430.107z M439.217,94.898h3.823c0.413,0,1.214-0.133,2.402-0.4
		c0.601-0.12,1.091-0.427,1.472-0.921c0.38-0.494,0.57-1.061,0.57-1.702c0-0.947-0.301-1.675-0.9-2.182
		c-0.602-0.507-1.729-0.761-3.384-0.761h-3.983V94.898z"/>
</g>
</svg>
