<?xml version="1.0" encoding="utf-8"?>
<!-- Generator: Adobe Illustrator 17.0.0, SVG Export Plug-In . SVG Version: 6.00 Build 0)  -->
<!DOCTYPE svg PUBLIC "-//W3C//DTD SVG 1.1//EN" "http://www.w3.org/Graphics/SVG/1.1/DTD/svg11.dtd">
<svg version="1.1" id="Capa_1" xmlns="http://www.w3.org/2000/svg" xmlns:xlink="http://www.w3.org/1999/xlink" x="0px" y="0px"
	 width="710px" height="735px" viewBox="-68.625 -81.625 710 735" enable-background="new -68.625 -81.625 710 735"
	 xml:space="preserve">
<g>
	<g>
		<path fill="#FFFFFF" d="M513.029-22.6c0-26.187-21.426-47.611-47.612-47.611H108.332c-26.187,0-47.611,21.425-47.611,47.611
			v142.834H513.03L513.029-22.6L513.029-22.6z"/>
		<path fill="#FFFFFF" d="M60.721,596.35c0,26.186,21.425,47.612,47.611,47.612h357.086c26.186,0,47.612-21.426,47.612-47.612
			V405.904H60.721V596.35z M108.332,477.321h357.086v23.806H108.332V477.321z M108.332,548.738h357.086v23.806H108.332V548.738z"/>
		<path fill="#FFFFFF" d="M560.64,144.041H13.109c-40.47,0-71.417,30.947-71.417,71.417v214.252
			c-0.001,40.47,30.947,71.417,71.417,71.417h23.806V382.098h499.921v119.029h23.806c40.47,0,71.417-30.947,71.417-71.417V215.458
			C632.059,174.987,601.111,144.041,560.64,144.041z M489.224,286.875c-14.283,0-23.806-9.522-23.806-23.806
			c0-14.283,9.522-23.806,23.806-23.806s23.806,9.522,23.806,23.806C513.03,277.353,503.507,286.875,489.224,286.875z"/>
	</g>
</g>
</svg>
